<?xml version="1.0" encoding="UTF-8" standalone="no"?><!DOCTYPE svg PUBLIC "-//W3C//DTD SVG 1.1//EN" "http://www.w3.org/Graphics/SVG/1.1/DTD/svg11.dtd"><svg width="100%" height="100%" viewBox="0 0 1875 1875" version="1.1" xmlns="http://www.w3.org/2000/svg" xmlns:xlink="http://www.w3.org/1999/xlink" xml:space="preserve" xmlns:serif="http://www.serif.com/" style="fill-rule:evenodd;clip-rule:evenodd;stroke-linejoin:round;stroke-miterlimit:2;"><path d="M1593.81,882.063c12.638,15.9 32.1,26.141 53.946,26.141l152.034,0c38.008,0 68.929,-30.921 68.929,-68.929c-0,-38.004 -30.921,-68.925 -68.929,-68.925l-152.034,0c-21.829,0 -41.283,10.229 -53.925,26.117l-88.575,-0l0,-123.454l132.996,-0c9.204,-0 16.667,-7.463 16.667,-16.667l-0,-52.263c-0,-9.204 -7.463,-16.666 -16.667,-16.666l-132.996,-0l0,-110.767l88.563,0c12.637,15.892 32.096,26.129 53.933,26.129l152.033,0c38.009,0 68.93,-30.921 68.93,-68.929c-0,-38.008 -30.921,-68.929 -68.93,-68.929l-152.033,-0c-21.837,-0 -41.296,10.237 -53.933,26.129l-88.563,0l0,-123.446l132.996,0c9.204,0 16.667,-7.462 16.667,-16.666l-0,-52.259c-0,-9.204 -7.463,-16.666 -16.667,-16.666l-132.996,-0l0,-76.917c0.004,-57.954 -47.141,-105.096 -105.091,-105.096l-925.396,0c-57.95,0 -105.096,47.142 -105.096,105.096l-0,76.917l-88.554,-0c-12.638,-15.892 -32.096,-26.13 -53.934,-26.13l-152.037,0c-38.008,0 -68.929,30.921 -68.929,68.93c-0,38.004 30.921,68.925 68.929,68.925l152.033,-0c21.838,-0 41.296,-10.238 53.938,-26.13l88.558,0l0,123.455l-132.992,-0c-9.204,-0 -16.666,7.462 -16.666,16.666l-0,52.263c-0,9.204 7.462,16.666 16.666,16.666l132.992,0l0,110.767l-88.571,0c-12.637,-15.883 -32.091,-26.117 -53.921,-26.117l-152.037,0c-38.008,0 -68.929,30.921 -68.929,68.93c-0,38.008 30.921,68.929 68.929,68.929l152.033,-0c21.846,-0 41.309,-10.246 53.946,-26.146l88.546,-0l-0,123.454l-132.988,0c-9.204,0 -16.666,7.463 -16.666,16.667l-0,52.262c-0,9.204 7.462,16.667 16.666,16.667l132.992,-0l0,110.812l-88.546,0c-12.637,-15.904 -32.104,-26.145 -53.946,-26.145l-152.037,-0c-38.008,-0 -68.929,30.92 -68.929,68.929c-0,38.008 30.921,68.929 68.929,68.929l152.033,-0c21.829,-0 41.284,-10.229 53.921,-26.117l88.571,0l-0,123.454l-132.988,0c-9.204,0 -16.666,7.463 -16.666,16.667l-0,52.263c-0,9.204 7.462,16.666 16.666,16.666l132.992,0l0,110.767l-88.558,-0c-12.638,-15.892 -32.096,-26.129 -53.934,-26.129l-152.037,-0c-38.008,-0 -68.929,30.921 -68.929,68.929c-0,38.008 30.921,68.929 68.929,68.929l152.033,0c21.838,0 41.296,-10.237 53.934,-26.129l88.558,-0l-0,123.45l-132.988,-0c-9.204,-0 -16.666,7.462 -16.666,16.666l-0,52.263c-0,9.204 7.462,16.667 16.666,16.667l132.992,-0l0,76.912c0,57.95 47.142,105.096 105.096,105.096l925.396,0c57.95,0 105.096,-47.142 105.096,-105.096l-0,-76.912l88.562,-0c12.638,15.891 32.096,26.129 53.933,26.129l152.034,-0c38.008,-0 68.929,-30.921 68.929,-68.929c-0,-38.009 -30.921,-68.929 -68.929,-68.929l-152.034,-0c-21.837,-0 -41.295,10.237 -53.933,26.129l-88.562,-0l-0,-123.45l132.995,-0c9.205,-0 16.667,-7.463 16.667,-16.667l0,-52.262c0,-9.205 -7.462,-16.667 -16.667,-16.667l-132.995,-0l-0,-110.767l88.575,0c12.637,15.884 32.091,26.117 53.92,26.117l152.034,-0c38.008,-0 68.929,-30.921 68.929,-68.929c-0,-38.009 -30.921,-68.929 -68.929,-68.929l-152.034,-0c-21.845,-0 -41.308,10.245 -53.945,26.145l-88.55,0l-0,-123.454l132.995,0c9.205,0 16.667,-7.462 16.667,-16.666l0,-52.271c0,-9.204 -7.462,-16.667 -16.667,-16.667l-132.995,0l-0,-110.812l88.545,-0Zm53.946,-78.375l152.034,-0c19.629,-0 35.595,15.966 35.595,35.591c0,19.629 -15.966,35.596 -35.595,35.596l-152.034,0c-19.629,0 -35.596,-15.967 -35.596,-35.596c0,-19.625 15.967,-35.591 35.596,-35.591Zm-68.2,26.112c-0.429,3.108 -0.729,6.254 -0.729,9.475c0,3.213 0.3,6.354 0.725,9.454l-74.296,0l0,-18.929l74.3,0Zm-204.104,0l96.471,0l-0,18.929l-96.467,0c0.375,-3.104 0.625,-6.246 0.625,-9.454c0.004,-3.208 -0.25,-6.358 -0.629,-9.475Zm96.479,-33.333l-108.646,-0c-13.725,-20.967 -37.191,-34.959 -63.929,-35.534c-10.354,-21.258 -22.441,-41.445 -36.271,-60.408c10.446,5.158 22.155,8.138 34.571,8.138c27.463,-0 51.634,-14.217 65.65,-35.65l108.625,-0l0,123.454Zm-165.104,141c0,6.691 -0.196,13.462 -0.567,20.254c-2.829,-0.313 -5.695,-0.496 -8.604,-0.496c-27.462,0 -51.633,14.217 -65.65,35.65l-228.887,0c-14.017,-21.433 -38.188,-35.65 -65.65,-35.65c-27.463,0 -51.634,14.217 -65.65,35.65l-228.888,0c-14.016,-21.433 -38.187,-35.65 -65.65,-35.65c-2.912,0 -5.775,0.188 -8.604,0.496c-0.375,-6.804 -0.571,-13.575 -0.571,-20.258c0,-6.68 0.196,-13.45 0.571,-20.255c2.829,0.313 5.696,0.496 8.604,0.496c27.463,0 51.634,-14.216 65.646,-35.65l228.888,0c14.016,21.434 38.187,35.65 65.645,35.65c27.459,0 51.634,-14.216 65.646,-35.65l228.888,0c14.016,21.434 38.187,35.65 65.646,35.65c2.908,0 5.775,-0.187 8.604,-0.496c0.387,6.8 0.583,13.567 0.583,20.259Zm-86.971,316.721l-204.587,-0c0.379,-3.117 0.629,-6.267 0.629,-9.48c-0,-3.204 -0.25,-6.345 -0.625,-9.45l204.575,0c-0.375,3.105 -0.625,6.246 -0.625,9.45c-0,3.213 0.254,6.363 0.633,9.48Zm-564.766,-18.93l204.575,0c-0.375,3.105 -0.625,6.246 -0.625,9.45c-0,3.213 0.254,6.367 0.629,9.479l-204.584,0c0.38,-3.116 0.63,-6.266 0.63,-9.479c-0,-3.204 -0.25,-6.345 -0.625,-9.45Zm216.75,52.263c3.783,5.779 8.325,10.992 13.454,15.579c-22.392,-3.183 -44.4,-8.396 -65.75,-15.579l52.296,-0Zm65.629,2.283c-24.867,0 -45.096,-20.229 -45.096,-45.096c-0,-24.866 20.229,-45.095 45.096,-45.095c24.866,-0 45.096,20.229 45.096,45.095c-0,24.867 -20.23,45.096 -45.096,45.096Zm65.629,-2.283l52.296,-0c-21.35,7.183 -43.359,12.396 -65.75,15.579c5.129,-4.587 9.671,-9.804 13.454,-15.579Zm192.042,-85.596l-192.021,0c-14.017,-21.433 -38.188,-35.65 -65.65,-35.65c-27.463,0 -51.634,14.217 -65.65,35.65l-192.021,0c-28.608,-27.796 -52.283,-59.55 -70.467,-94.758c13.746,-6.188 25.392,-16.192 33.579,-28.692l228.925,0c14.017,21.413 38.18,35.617 65.63,35.617c27.45,-0 51.612,-14.2 65.629,-35.617l228.925,0c8.183,12.5 19.833,22.508 33.579,28.692c-18.179,35.204 -41.85,66.962 -70.458,94.758Zm-617.855,-211.367c24.867,0 45.096,20.23 45.096,45.096c0,24.867 -20.229,45.096 -45.096,45.096c-24.866,0 -45.095,-20.229 -45.095,-45.096c-0,-24.866 20.229,-45.096 45.095,-45.096Zm77.805,35.65l204.575,0c-0.375,3.105 -0.625,6.246 -0.625,9.45c-0,3.213 0.254,6.367 0.629,9.48l-204.584,-0c0.38,-3.117 0.63,-6.267 0.63,-9.48c-0,-3.204 -0.25,-6.345 -0.625,-9.45Zm237.283,9.45c-0,-24.866 20.229,-45.095 45.096,-45.095c24.866,-0 45.096,20.229 45.096,45.095c-0,24.867 -20.23,45.096 -45.096,45.096c-24.867,0 -45.096,-20.233 -45.096,-45.096Zm122.9,-9.45l204.575,0c-0.375,3.105 -0.625,6.246 -0.625,9.45c-0,3.213 0.254,6.367 0.629,9.48l-204.587,-0c0.379,-3.117 0.629,-6.267 0.629,-9.48c0.004,-3.204 -0.246,-6.345 -0.621,-9.45Zm282.383,54.546c-24.866,0 -45.096,-20.229 -45.096,-45.096c0,-24.866 20.23,-45.096 45.096,-45.096c24.867,0 45.096,20.23 45.096,45.096c0,24.867 -20.233,45.096 -45.096,45.096Zm-642.571,-460.004l204.588,0c-0.379,3.117 -0.629,6.267 -0.629,9.479c-0,3.204 0.25,6.346 0.625,9.45l-204.575,0c0.375,-3.104 0.625,-6.246 0.625,-9.45c-0.004,-3.212 -0.259,-6.362 -0.634,-9.479Zm564.767,18.929l-204.575,0c0.375,-3.104 0.625,-6.246 0.625,-9.45c0,-3.212 -0.254,-6.366 -0.629,-9.479l204.587,0c-0.379,3.117 -0.629,6.267 -0.629,9.479c-0.008,3.209 0.246,6.35 0.621,9.45Zm-216.754,-52.262c-3.783,-5.779 -8.325,-10.992 -13.454,-15.579c22.391,3.183 44.408,8.395 65.758,15.579l-52.304,-0Zm-65.629,-2.279c24.866,-0 45.096,20.229 45.096,45.095c-0,24.867 -20.23,45.096 -45.096,45.096c-24.867,0 -45.096,-20.229 -45.096,-45.096c-0,-24.866 20.229,-45.095 45.096,-45.095Zm-65.629,2.279l-52.305,-0c21.35,-7.184 43.363,-12.396 65.759,-15.579c-5.129,4.591 -9.671,9.804 -13.454,15.579Zm-192.038,85.596l192.021,-0c14.017,21.433 38.187,35.65 65.65,35.65c27.462,-0 51.633,-14.217 65.65,-35.65l192.021,-0c28.608,27.795 52.279,59.55 70.462,94.758c-13.746,6.187 -25.396,16.192 -33.579,28.696l-228.921,-0c-14.016,-21.417 -38.179,-35.621 -65.629,-35.621c-27.45,-0 -51.612,14.204 -65.629,35.621l-228.921,-0c-8.183,-12.505 -19.833,-22.509 -33.579,-28.696c18.171,-35.208 41.846,-66.963 70.454,-94.758Zm540.05,175.716l-204.579,0c0.375,-3.104 0.625,-6.246 0.625,-9.454c-0,-3.212 -0.254,-6.362 -0.629,-9.475l204.587,0c-0.379,3.113 -0.629,6.263 -0.629,9.475c-0.004,3.208 0.25,6.35 0.625,9.454Zm-237.287,-9.45c-0,24.871 -20.23,45.1 -45.096,45.1c-24.867,0 -45.096,-20.229 -45.096,-45.1c-0,-24.866 20.229,-45.096 45.096,-45.096c24.866,0 45.096,20.23 45.096,45.096Zm-122.9,9.45l-204.58,0c0.375,-3.104 0.625,-6.246 0.625,-9.454c0,-3.212 -0.254,-6.362 -0.629,-9.475l204.588,0c-0.379,3.113 -0.629,6.263 -0.629,9.475c-0,3.208 0.25,6.35 0.625,9.454Zm-282.38,-54.546c24.867,0 45.096,20.23 45.096,45.096c0,24.871 -20.229,45.1 -45.096,45.1c-24.866,0 -45.095,-20.229 -45.095,-45.1c-0,-24.866 20.229,-45.096 45.095,-45.096Zm720.371,90.196c-24.866,0 -45.096,-20.229 -45.096,-45.1c0,-24.866 20.23,-45.096 45.096,-45.096c24.867,0 45.096,20.23 45.096,45.096c0,24.871 -20.233,45.1 -45.096,45.1Zm-45.1,-254.146c0,-24.866 20.229,-45.095 45.096,-45.095c24.867,-0 45.096,20.229 45.096,45.095c-0,24.867 -20.229,45.096 -45.096,45.096c-24.867,0 -45.096,-20.229 -45.096,-45.096Zm122.896,-9.483l96.471,0l-0,18.929l-96.467,0c0.375,-3.104 0.625,-6.246 0.625,-9.45c0.004,-3.212 -0.25,-6.362 -0.629,-9.479Zm246.138,0l-0,18.929l-116.33,0l0,-18.929l116.33,0Zm26.166,-222.492l152.034,0c19.629,0 35.595,15.967 35.595,35.596c0,19.629 -15.966,35.596 -35.595,35.596l-152.034,0c-19.629,0 -35.596,-15.967 -35.596,-35.596c0,-19.629 15.967,-35.596 35.596,-35.596Zm-68.2,26.134c-0.429,3.104 -0.729,6.246 -0.729,9.462c0,3.217 0.3,6.363 0.729,9.463l-74.296,-0l0,-18.929l74.296,-0l0,0.004Zm-204.1,-0l96.471,-0l0,18.929l-96.471,-0c0.375,-3.108 0.629,-6.254 0.629,-9.463c0,-3.208 -0.254,-6.358 -0.629,-9.466Zm96.471,-33.334l-108.633,0c-14.017,-21.42 -38.184,-35.633 -65.638,-35.633c-27.454,0 -51.621,14.208 -65.637,35.633l-228.909,0c-5.129,-7.837 -11.637,-14.666 -19.154,-20.225c84.021,-9.67 162.604,-45.429 225.567,-103.229l22.492,0c14.016,21.425 38.183,35.638 65.641,35.638c27.459,-0 51.625,-14.213 65.642,-35.638l108.629,0l0,123.454Zm-129.175,42.796c0,24.867 -20.229,45.096 -45.096,45.096c-24.866,0 -45.096,-20.229 -45.096,-45.096c0,-24.866 20.23,-45.096 45.096,-45.096c24.867,0 45.096,20.23 45.096,45.096Zm-122.9,9.463l-204.583,-0c0.375,-3.109 0.629,-6.254 0.629,-9.463c-0,-3.208 -0.254,-6.354 -0.629,-9.462l204.583,-0c-0.375,3.108 -0.629,6.254 -0.629,9.462c-0,3.209 0.254,6.354 0.629,9.463Zm-282.383,-54.559c24.866,0 45.096,20.23 45.096,45.096c-0,24.867 -20.23,45.096 -45.096,45.096c-24.867,0 -45.096,-20.229 -45.096,-45.096c-0,-24.866 20.229,-45.096 45.096,-45.096Zm-315.088,-163.95c0,24.867 -20.229,45.096 -45.096,45.096c-24.866,0 -45.095,-20.229 -45.095,-45.096c-0,-24.87 20.229,-45.1 45.095,-45.1c24.867,0 45.096,20.23 45.096,45.1Zm-2.804,-65.95c-23.137,-38.87 -38.646,-81 -46.183,-125.525l108.671,0l-0,57.255c-0,9.204 7.462,16.666 16.666,16.666l489.359,0c9.204,0 16.666,-7.462 16.666,-16.666l0,-57.255l96.792,0c-7.542,44.525 -23.046,86.655 -46.183,125.525c-9.317,5.996 -17.284,13.884 -23.35,23.155l-228.905,-0c-14.016,-21.425 -38.183,-35.638 -65.641,-35.638c-27.459,0 -51.625,14.213 -65.642,35.638l-228.904,-0c-6.063,-9.271 -14.029,-17.159 -23.346,-23.155Zm95.817,-125.525l456.025,0l-0,40.588l-456.025,-0l-0,-40.588Zm582.262,146.375c24.867,0 45.096,20.23 45.096,45.1c0,24.867 -20.229,45.096 -45.096,45.096c-24.866,0 -45.096,-20.229 -45.096,-45.096c-0.004,-24.87 20.23,-45.1 45.096,-45.1Zm-77.804,54.563l-204.579,-0c0.375,-3.108 0.629,-6.254 0.629,-9.463c0,-3.208 -0.254,-6.354 -0.629,-9.462l204.583,-0c-0.375,3.108 -0.629,6.254 -0.629,9.462c-0.004,3.209 0.25,6.355 0.625,9.463Zm-237.288,-9.463c0,24.867 -20.229,45.096 -45.095,45.096c-24.867,0 -45.096,-20.229 -45.096,-45.096c-0,-24.87 20.229,-45.1 45.096,-45.1c24.866,0 45.096,20.23 45.096,45.1Zm-327.48,-9.462l204.584,-0c-0.375,3.108 -0.63,6.254 -0.63,9.462c0,3.209 0.25,6.355 0.63,9.463l-204.584,-0c0.375,-3.108 0.63,-6.254 0.63,-9.463c-0,-3.208 -0.25,-6.354 -0.63,-9.462Zm216.742,52.258c14.017,21.425 38.183,35.638 65.642,35.638c27.458,-0 51.625,-14.213 65.641,-35.638l154.175,0c-63.329,47.067 -139.871,72.663 -219.816,72.663c-79.95,-0 -156.488,-25.6 -219.817,-72.663l154.175,0Zm503.629,-52.258l96.471,-0l0,18.925l-96.471,-0c0.375,-3.108 0.629,-6.254 0.629,-9.463c0,-3.208 -0.254,-6.354 -0.629,-9.462Zm246.133,-0l0,18.925l-116.329,-0l0,-18.925l116.329,-0Zm-149.662,-110.25l0,76.917l-108.633,-0c-13.63,-20.834 -36.875,-34.767 -63.396,-35.521c17.404,-35.692 29.262,-73.575 35.4,-113.154l64.866,-0c39.571,-0.005 71.763,32.187 71.763,71.758Zm-1068.92,-0c0,-39.571 32.188,-71.763 71.759,-71.763l64.87,0c6.138,39.58 17.996,77.463 35.4,113.155c-26.52,0.754 -49.766,14.687 -63.395,35.52l-108.634,0l0,-76.912Zm96.471,129.175l-96.471,-0l0,-18.925l96.475,-0c-0.375,3.108 -0.629,6.254 -0.629,9.462c0,3.209 0.25,6.355 0.625,9.463Zm-272.3,26.129l-152.033,0c-19.629,0 -35.596,-15.967 -35.596,-35.592c-0,-19.629 15.967,-35.595 35.596,-35.595l152.033,-0c19.629,-0 35.596,15.966 35.596,35.595c-0,19.625 -15.967,35.592 -35.596,35.592Zm68.204,-26.129c0.429,-3.1 0.729,-6.242 0.729,-9.463c0,-3.216 -0.3,-6.362 -0.729,-9.462l74.292,-0l-0,18.925l-74.292,-0Zm107.625,33.333l108.634,0c14.016,21.425 38.183,35.638 65.641,35.638c27.459,-0 51.625,-14.213 65.642,-35.638l22.492,0c62.962,57.8 141.541,93.554 225.566,103.229c-7.516,5.559 -14.025,12.388 -19.154,20.225l-228.908,0c-14.017,-21.42 -38.184,-35.633 -65.638,-35.633c-27.454,0 -51.621,14.208 -65.637,35.633l-108.638,0l0,-123.454Zm456.659,175.713l-204.584,-0c0.375,-3.109 0.63,-6.254 0.63,-9.463c-0,-3.208 -0.255,-6.354 -0.63,-9.462l204.584,-0c-0.375,3.108 -0.63,6.254 -0.63,9.462c0,3.209 0.25,6.354 0.63,9.463Zm-237.288,-9.463c0,24.867 -20.229,45.096 -45.096,45.096c-24.866,0 -45.096,-20.229 -45.096,-45.096c0,-24.866 20.23,-45.096 45.096,-45.096c24.867,0 45.096,20.23 45.096,45.096Zm-122.9,9.463l-96.471,-0l0,-18.929l96.475,-0c-0.375,3.108 -0.629,6.254 -0.629,9.462c0,3.208 0.25,6.358 0.625,9.467Zm-246.129,-0l-0,-18.929l116.325,-0l-0,18.929l-116.325,-0Zm149.658,33.333l108.638,0c14.016,21.421 38.183,35.633 65.637,35.633c27.455,0 51.621,-14.208 65.638,-35.633l228.908,0c14.017,21.421 38.183,35.633 65.638,35.633c27.454,0 51.62,-14.208 65.637,-35.633l228.908,0c14.017,21.421 38.184,35.633 65.638,35.633c27.454,0 51.621,-14.208 65.637,-35.633l108.634,0l-0,110.767l-108.642,-0c-14.017,-21.413 -38.179,-35.617 -65.629,-35.617c-27.45,0 -51.613,14.2 -65.629,35.617l-95.579,-0c-60.305,-34.425 -128.984,-52.642 -198.975,-52.642c-69.992,0 -138.671,18.217 -198.975,52.642l-95.58,-0c-14.016,-21.413 -38.179,-35.617 -65.629,-35.617c-27.45,0 -51.612,14.2 -65.629,35.617l-108.646,-0l0,-110.767Zm219.371,153.583c0,24.867 -20.229,45.096 -45.096,45.096c-24.866,0 -45.096,-20.229 -45.096,-45.096c0,-24.866 20.23,-45.095 45.096,-45.095c24.867,-0 45.096,20.229 45.096,45.095Zm-122.9,9.446l-96.471,0l0,-18.929l96.475,0c-0.379,3.117 -0.629,6.267 -0.629,9.479c0,3.209 0.25,6.35 0.625,9.45Zm-272.3,26.15l-152.033,0c-19.629,0 -35.596,-15.966 -35.596,-35.596c-0,-19.629 15.967,-35.596 35.596,-35.596l152.033,0c19.629,0 35.596,15.967 35.596,35.596c-0,19.63 -15.967,35.596 -35.596,35.596Zm68.204,-26.15c0.429,-3.096 0.725,-6.233 0.725,-9.45c0,-3.225 -0.3,-6.375 -0.729,-9.479l74.296,0l-0,18.929l-74.292,0Zm107.625,33.334l108.629,-0c14.017,21.433 38.188,35.65 65.65,35.65c12.417,-0 24.125,-2.98 34.571,-8.138c-13.829,18.963 -25.912,39.15 -36.271,60.408c-26.741,0.58 -50.204,14.567 -63.929,35.534l-108.65,-0l0,-123.454Zm96.471,175.716l-96.471,0l0,-18.929l96.475,0c-0.379,3.113 -0.629,6.263 -0.629,9.475c0,3.208 0.25,6.35 0.625,9.454Zm-246.129,0l-0,-18.929l116.325,0l-0,18.929l-116.325,0Zm149.658,33.334l108.629,-0c6.284,9.612 14.63,17.72 24.388,23.791c-0.825,10.613 -1.25,21.2 -1.25,31.613c-0,10.412 0.425,21.004 1.25,31.616c-9.758,6.071 -18.104,14.184 -24.388,23.792l-108.629,0l0,-110.812Zm96.475,163.075l-96.475,-0l0,-18.93l96.471,0c-0.375,3.105 -0.625,6.246 -0.625,9.45c0,3.213 0.25,6.363 0.629,9.48Zm-272.304,26.116l-152.033,0c-19.629,0 -35.596,-15.966 -35.596,-35.596c-0,-19.629 15.967,-35.595 35.596,-35.595l152.033,-0c19.629,-0 35.596,15.966 35.596,35.595c-0,19.63 -15.967,35.596 -35.596,35.596Zm68.2,-26.116c0.429,-3.109 0.729,-6.255 0.729,-9.48c0,-3.212 -0.3,-6.35 -0.725,-9.45l74.288,0l-0,18.93l-74.292,-0Zm107.629,33.333l108.646,-0c13.725,20.967 37.188,34.95 63.925,35.529c10.354,21.258 22.442,41.446 36.271,60.413c-10.446,-5.159 -22.154,-8.138 -34.571,-8.138c-27.462,0 -51.633,14.217 -65.65,35.65l-108.621,0l0,-123.454Zm219.371,166.233c0,24.867 -20.229,45.096 -45.096,45.096c-24.866,-0 -45.096,-20.229 -45.096,-45.096c0,-24.867 20.23,-45.096 45.096,-45.096c24.867,0 45.096,20.234 45.096,45.096Zm-122.896,9.483l-96.475,0l0,-18.929l96.471,0c-0.375,3.104 -0.625,6.246 -0.625,9.45c0,3.213 0.25,6.363 0.629,9.479Zm-246.133,0l-0,-18.929l116.325,0l-0,18.929l-116.325,0Zm-26.171,222.492l-152.033,0c-19.629,0 -35.596,-15.966 -35.596,-35.596c-0,-19.629 15.967,-35.595 35.596,-35.595l152.033,-0c19.629,-0 35.596,15.966 35.596,35.595c-0,19.63 -15.967,35.596 -35.596,35.596Zm68.204,-26.129c0.429,-3.104 0.729,-6.246 0.729,-9.463c0,-3.216 -0.3,-6.362 -0.729,-9.462l74.292,-0l-0,18.929l-74.292,0l0,-0.004Zm204.096,-0l-96.471,-0l0,-18.929l96.475,-0c-0.375,3.108 -0.629,6.254 -0.629,9.462c0,3.209 0.25,6.359 0.625,9.467Zm-96.471,33.333l108.638,0c14.016,21.421 38.183,35.634 65.637,35.634c27.454,-0 51.621,-14.209 65.638,-35.634l228.908,0c5.129,7.838 11.638,14.667 19.154,20.225c-84.025,9.671 -162.604,45.429 -225.566,103.225l-22.496,0c-14.017,-21.421 -38.184,-35.633 -65.638,-35.633c-27.454,-0 -51.621,14.208 -65.637,35.633l-108.638,0l0,-123.45Zm129.179,-42.8c0,-24.866 20.23,-45.096 45.096,-45.096c24.867,0 45.096,20.23 45.096,45.096c0,24.867 -20.229,45.096 -45.096,45.096c-24.866,0 -45.096,-20.229 -45.096,-45.096Zm122.896,-9.462l204.584,-0c-0.375,3.108 -0.63,6.254 -0.63,9.462c0,3.209 0.255,6.354 0.63,9.463l-204.584,-0c0.375,-3.109 0.629,-6.254 0.629,-9.463c0,-3.208 -0.25,-6.354 -0.629,-9.462Zm282.384,54.562c-24.867,0 -45.096,-20.229 -45.096,-45.095c-0,-24.867 20.229,-45.096 45.096,-45.096c24.866,-0 45.095,20.229 45.095,45.096c0,24.866 -20.229,45.095 -45.095,45.095Zm315.087,163.946c0,-24.867 20.229,-45.096 45.096,-45.096c24.867,0 45.096,20.23 45.096,45.096c-0,24.867 -20.229,45.096 -45.096,45.096c-24.867,0 -45.096,-20.229 -45.096,-45.096Zm2.804,65.946c23.142,38.875 38.646,81 46.188,125.525l-96.792,0l0,-57.258c0,-9.205 -7.462,-16.667 -16.667,-16.667l-489.362,-0c-9.204,-0 -16.667,7.462 -16.667,16.667l0,57.258l-108.671,0c7.542,-44.529 23.05,-86.654 46.188,-125.525c9.312,-5.996 17.279,-13.879 23.342,-23.146l228.908,0c14.017,21.425 38.183,35.634 65.637,35.634c27.455,-0 51.621,-14.209 65.638,-35.634l228.908,0c6.067,9.267 14.034,17.15 23.35,23.146Zm-83.937,125.525l-456.029,0l-0,-40.592l456.025,0l-0,40.592l0.004,0Zm-594.138,-146.375c-24.866,0 -45.096,-20.229 -45.096,-45.096c0,-24.866 20.23,-45.096 45.096,-45.096c24.867,0 45.096,20.23 45.096,45.096c0,24.867 -20.229,45.096 -45.096,45.096Zm77.8,-54.558l204.584,-0c-0.375,3.108 -0.63,6.254 -0.63,9.462c0,3.209 0.255,6.354 0.63,9.463l-204.584,-0c0.375,-3.109 0.629,-6.254 0.629,-9.463c0,-3.208 -0.25,-6.354 -0.629,-9.462Zm237.288,9.462c-0,-24.867 20.229,-45.096 45.096,-45.096c24.866,0 45.095,20.23 45.095,45.096c0,24.867 -20.229,45.096 -45.095,45.096c-24.867,0 -45.096,-20.229 -45.096,-45.096Zm327.479,9.467l-204.583,-0c0.375,-3.109 0.629,-6.254 0.629,-9.463c-0,-3.208 -0.254,-6.354 -0.629,-9.462l204.583,-0c-0.375,3.108 -0.629,6.254 -0.629,9.462c-0,3.209 0.254,6.354 0.629,9.463Zm-216.746,-52.263c-14.017,-21.421 -38.183,-35.633 -65.637,-35.633c-27.455,-0 -51.621,14.208 -65.638,35.633l-154.179,0c63.329,-47.062 139.867,-72.658 219.817,-72.658c79.946,-0 156.483,25.596 219.816,72.658l-154.179,0Zm-503.625,52.263l-96.471,-0l0,-18.929l96.475,-0c-0.375,3.108 -0.629,6.254 -0.629,9.462c0,3.209 0.25,6.359 0.625,9.467Zm-246.129,-0l-0,-18.929l116.325,-0l-0,18.929l-116.325,-0Zm149.658,110.246l0,-76.913l108.638,0c13.629,20.833 36.875,34.763 63.396,35.517c-17.405,35.691 -29.263,73.575 -35.4,113.154l-64.871,-0c-39.575,-0 -71.763,-32.188 -71.763,-71.758Zm1068.92,-0c0,39.57 -32.192,71.762 -71.763,71.762l-64.866,0c-6.138,-39.579 -17.996,-77.462 -35.4,-113.154c26.521,-0.754 49.767,-14.688 63.396,-35.517l108.633,0l0,76.909Zm-96.471,-129.175l96.471,-0l0,18.929l-96.471,-0c0.375,-3.109 0.629,-6.254 0.629,-9.463c0,-3.208 -0.254,-6.358 -0.629,-9.466Zm272.3,-26.134l152.034,0c19.629,0 35.595,15.967 35.595,35.596c0,19.629 -15.966,35.596 -35.595,35.596l-152.034,-0c-19.629,-0 -35.596,-15.967 -35.596,-35.596c0,-19.629 15.967,-35.596 35.596,-35.596Zm-68.2,26.134c-0.429,3.104 -0.729,6.245 -0.729,9.462c0,3.217 0.3,6.363 0.729,9.463l-74.296,-0l0,-18.93l74.296,0l0,0.005Zm-107.629,-33.334l-108.633,0c-14.017,-21.421 -38.184,-35.633 -65.638,-35.633c-27.454,-0 -51.621,14.208 -65.637,35.633l-22.496,0c-62.967,-57.796 -141.546,-93.55 -225.567,-103.225c7.517,-5.558 14.025,-12.387 19.154,-20.225l228.909,0c14.016,21.421 38.183,35.634 65.637,35.634c27.454,-0 51.621,-14.209 65.638,-35.634l108.633,0l0,123.45Zm-456.654,-175.712l204.583,-0c-0.375,3.108 -0.629,6.254 -0.629,9.462c0,3.209 0.254,6.354 0.629,9.463l-204.583,-0c0.375,-3.109 0.629,-6.254 0.629,-9.463c0,-3.208 -0.254,-6.354 -0.629,-9.462Zm237.283,9.462c0,-24.866 20.229,-45.096 45.096,-45.096c24.867,0 45.096,20.23 45.096,45.096c-0,24.867 -20.229,45.096 -45.096,45.096c-24.867,0 -45.096,-20.229 -45.096,-45.096Zm122.9,-9.462l96.471,-0l0,18.929l-96.471,-0c0.375,-3.108 0.629,-6.254 0.629,-9.463c0,-3.208 -0.254,-6.358 -0.629,-9.466Zm246.134,-0l-0,18.929l-116.33,-0l0,-18.929l116.33,-0Zm-149.663,-33.334l-108.633,0c-14.017,-21.42 -38.184,-35.633 -65.638,-35.633c-27.454,0 -51.621,14.208 -65.637,35.633l-228.909,0c-14.016,-21.42 -38.183,-35.633 -65.637,-35.633c-27.454,0 -51.621,14.208 -65.638,35.633l-228.908,0c-14.017,-21.42 -38.183,-35.633 -65.637,-35.633c-27.455,0 -51.621,14.208 -65.638,35.633l-108.642,0l0,-110.766l108.646,-0c14.017,21.412 38.179,35.616 65.629,35.616c27.45,0 51.613,-14.2 65.63,-35.616l95.579,-0c60.312,34.425 128.991,52.641 198.975,52.641c69.983,0 138.662,-18.216 198.975,-52.641l95.579,-0c14.016,21.412 38.179,35.616 65.629,35.616c27.45,0 51.613,-14.2 65.629,-35.616l108.642,-0l-0,110.766l0.004,0Zm-219.371,-153.583c0,-24.867 20.229,-45.096 45.096,-45.096c24.867,0 45.096,20.229 45.096,45.096c-0,24.867 -20.229,45.096 -45.096,45.096c-24.867,-0 -45.096,-20.229 -45.096,-45.096Zm122.9,-9.446l96.467,0l-0,18.929l-96.471,0c0.379,-3.116 0.629,-6.266 0.629,-9.479c0.004,-3.204 -0.25,-6.346 -0.625,-9.45Zm272.3,-26.146l152.034,0c19.629,0 35.595,15.967 35.595,35.596c0,19.629 -15.966,35.596 -35.595,35.596l-152.034,0c-19.629,0 -35.596,-15.967 -35.596,-35.596c0,-19.629 15.967,-35.596 35.596,-35.596Zm-68.204,26.146c-0.429,3.096 -0.725,6.234 -0.725,9.45c0,3.225 0.3,6.375 0.729,9.479l-74.3,0l0,-18.929l74.296,0Zm-107.625,-33.333l-108.625,-0c-14.017,-21.433 -38.187,-35.65 -65.65,-35.65c-12.417,-0 -24.125,2.979 -34.571,8.137c13.829,-18.966 25.917,-39.154 36.271,-60.412c26.738,-0.579 50.2,-14.563 63.925,-35.529l108.642,-0l-0,123.454l0.008,-0Zm-96.471,-175.717l96.467,0l-0,18.929l-96.471,0c0.379,-3.116 0.629,-6.266 0.629,-9.479c0.004,-3.204 -0.25,-6.346 -0.625,-9.45Zm246.134,0l-0,18.929l-116.33,0l0,-18.929l116.33,0Zm-149.663,-33.333l-108.625,-0c-6.287,-9.613 -14.629,-17.725 -24.392,-23.796c0.825,-10.592 1.25,-21.183 1.25,-31.612c0,-10.43 -0.425,-21.021 -1.25,-31.609c9.763,-6.071 18.105,-14.183 24.392,-23.796l108.625,0l0,110.813Z" style="fill:#141517;fill-rule:nonzero;"/></svg>