<svg xmlns="http://www.w3.org/2000/svg" xmlns:xlink="http://www.w3.org/1999/xlink" width="100%" height="100%" version="1.1" viewBox="0 0 1959 1959" xml:space="preserve" style="fill-rule:evenodd;clip-rule:evenodd;stroke-linejoin:round;stroke-miterlimit:2"><g><path d="M1681.76,1004.55l-98.541,0c-17.263,0 -31.25,-13.987 -31.25,-31.25c-0,-0.008 -62.5,-0.008 -62.5,-0.008c-0,17.271 -13.988,31.258 -31.25,31.258l-95.1,0l-168.78,287.175l161.88,275.438l325.591,-0c70.275,-83.842 125.842,-180.384 162.725,-285.646l-162.775,-276.967Zm-193.591,219.554c-0,17.259 -13.992,31.25 -31.25,31.25c-9.709,0 -18.384,-4.429 -24.117,-11.371c-1.275,-1.545 -2.4,-3.212 -3.362,-4.983c-2.405,-4.429 -3.771,-9.5 -3.771,-14.896c-0,-1.771 0.183,-3.491 0.466,-5.179c0.405,-2.429 1.059,-4.779 1.992,-6.983c1.583,-3.738 3.871,-7.109 6.696,-9.934c5.654,-5.654 13.467,-9.15 22.096,-9.15c17.258,-0.004 31.25,13.988 31.25,31.246Zm93.75,156.25c-12.346,0 -22.988,-7.179 -28.063,-17.571c-2.021,-4.137 -3.187,-8.766 -3.187,-13.679c-0,-7.554 2.679,-14.479 7.133,-19.879c1.908,-2.317 4.15,-4.35 6.642,-6.033c1.1,-0.746 2.266,-1.392 3.466,-1.996c4.217,-2.121 8.963,-3.342 14.009,-3.342c17.258,0 31.25,13.992 31.25,31.25c-0,1.992 -0.204,3.934 -0.563,5.825c-2.729,14.471 -15.421,25.425 -30.687,25.425Z" style="fill:#fff;fill-rule:nonzero"/><path d="M1583.22,942.05l98.545,0l160.184,-272.558c-38.646,-107.334 -96.738,-205.467 -170.075,-290.059l-308.75,0l-168.779,287.175l161.879,275.438l101.996,-0c17.258,-0 31.245,13.983 31.25,31.241l62.5,0c0.004,-17.254 13.991,-31.237 31.25,-31.237Z" style="fill:#31bccc;fill-rule:nonzero"/><path d="M652.796,354.054l165.325,281.309l322.092,-0l165.329,-281.309l-162.738,-276.9c-53.121,-9.616 -107.812,-14.654 -163.662,-14.654c-55.829,0 -110.504,5.033 -163.605,14.642l-162.741,276.912Z" style="fill:#fff;fill-rule:nonzero"/><path d="M276.575,942.05l325.542,0l161.879,-275.437l-168.775,-287.175l-308.767,-0c-73.333,84.591 -131.425,182.725 -170.067,290.054l160.188,272.558Zm69.996,-342.117c3.954,-12.72 15.821,-21.958 29.846,-21.958c12.191,0 22.721,6.996 27.875,17.175c2.141,4.233 3.375,9.008 3.375,14.075c-0,17.258 -13.992,31.25 -31.25,31.25c-17.259,0 -31.25,-13.992 -31.25,-31.25c-0,-2.158 0.216,-4.262 0.633,-6.3c0.208,-1.013 0.467,-2.008 0.771,-2.992Z" style="fill:#31bccc;fill-rule:nonzero"/><path d="M724.233,1421.06c-14.887,-8.746 -19.858,-27.901 -11.112,-42.775l50.875,-86.563l-168.775,-287.175l-318.646,0l-162.779,276.967c36.883,105.266 92.446,201.808 162.716,285.65l325.605,-0l47.666,-81.113c8.746,-14.883 27.909,-19.858 42.775,-11.108c0.009,0.004 3.621,-6.142 3.621,-6.142l28.054,-47.741Z" style="fill:#fff;fill-rule:nonzero"/><path d="M1142.8,1881.18l162.738,-276.904l-165.329,-281.308l-322.096,-0l-51.121,86.979c-5.821,9.908 -16.254,15.421 -26.971,15.421c-5.383,-0 -10.829,-1.388 -15.8,-4.313l-28.054,47.742l-3.613,6.146c14.875,8.75 19.842,27.892 11.1,42.771l-50.87,86.562l162.741,276.909c53.1,9.608 107.775,14.641 163.604,14.641c55.859,0.004 110.55,-5.033 163.671,-14.646Z" style="fill:#31bccc;fill-rule:nonzero"/><path d="M1866.92,750.346l-131.034,222.954l133.063,226.413c17.521,-70.667 26.883,-144.525 26.883,-220.534c0,-78.983 -10.041,-155.662 -28.912,-228.833Z" style="fill:#1f7bb5;fill-rule:nonzero"/><path d="M1363.12,1629.66l-136.463,232.195c152.188,-42.729 288.467,-123.841 397.704,-232.195l-261.241,-0Z" style="fill:#1f7bb5;fill-rule:nonzero"/><path d="M1356.22,316.933l256.112,0c-107.145,-102.483 -239.033,-179.283 -385.679,-220.458l129.567,220.458Z" style="fill:#1f7bb5;fill-rule:nonzero"/><path d="M1140.21,1260.48l165.334,-281.308l-165.334,-281.309l-322.083,0l-165.329,281.309l165.329,281.308l322.083,0Z" style="fill:#1f7bb5;fill-rule:nonzero"/><path d="M595.221,1629.66l-261.258,-0c109.241,108.362 245.529,189.483 397.729,232.204l-136.471,-232.204Z" style="fill:#1f7bb5;fill-rule:nonzero"/><path d="M602.117,316.933l129.571,-220.471c-146.659,41.171 -278.555,117.976 -385.705,220.471l256.134,0Z" style="fill:#1f7bb5;fill-rule:nonzero"/><path d="M222.45,973.3l-131.038,-222.958c-18.87,73.175 -28.912,149.854 -28.912,228.837c0,76.008 9.363,149.863 26.883,220.534l133.067,-226.413Z" style="fill:#1f7bb5;fill-rule:nonzero"/><path d="M1671.53,286.792c-184.946,-184.942 -430.837,-286.792 -692.387,-286.792c-261.538,0 -507.417,101.85 -692.354,286.792c-184.942,184.945 -286.788,430.837 -286.788,692.387c0,261.542 101.85,507.425 286.788,692.363c184.937,184.941 430.82,286.791 692.354,286.791c261.546,0 507.441,-101.85 692.387,-286.787c184.95,-184.942 286.804,-430.829 286.804,-692.367c0,-261.55 -101.854,-507.442 -286.804,-692.387Zm10.279,1280.37l-325.591,-0l-161.88,-275.438l168.78,-287.175l95.1,0c17.262,0 31.25,-13.987 31.25,-31.25c-0.004,-17.267 -13.992,-31.25 -31.25,-31.25l-101.996,0l-161.879,-275.437l168.779,-287.175l308.75,-0c73.337,84.591 131.433,182.725 170.075,290.058l-160.183,272.558l-98.546,0c-17.259,0 -31.246,13.984 -31.25,31.242c-0,17.271 13.987,31.258 31.25,31.258l98.541,0l162.775,276.967c-36.883,105.258 -92.45,201.804 -162.725,285.642Zm-863.683,-869.305l322.088,0l165.329,281.309l-165.334,281.308l-322.083,0l-165.329,-281.308l165.329,-281.309Zm-531.671,-318.425l308.767,0l168.775,287.175l-161.879,275.438l-325.542,-0l-160.187,-272.558c38.641,-107.33 96.733,-205.459 170.066,-290.055Zm1449.43,593.867l131.033,-222.954c18.871,73.171 28.912,149.85 28.912,228.833c0,76.009 -9.362,149.863 -26.883,220.534l-133.062,-226.413Zm-379.667,-656.367l-129.567,-220.458c146.646,41.171 278.534,117.971 385.679,220.458l-256.112,0Zm-213.417,-239.779l162.738,276.9l-165.329,281.309l-322.092,-0l-165.325,-281.309l162.742,-276.908c53.104,-9.613 107.774,-14.646 163.604,-14.646c55.85,0 110.541,5.038 163.662,14.654Zm-540.687,239.779l-256.13,0c107.151,-102.495 239.046,-179.3 385.705,-220.47l-129.575,220.47Zm-510.704,433.409l131.037,222.958l-133.067,226.413c-17.52,-70.671 -26.883,-144.525 -26.883,-220.534c0,-78.983 10.042,-155.662 28.913,-228.837Zm503.808,879.321l136.471,232.204c-152.2,-42.725 -288.488,-123.842 -397.729,-232.204l261.258,-0Zm220.317,251.529l-162.742,-276.909l50.871,-86.562c8.741,-14.879 3.775,-34.021 -11.1,-42.771c-14.871,-8.754 -34.038,-3.779 -42.784,11.104l-47.666,81.113l-325.604,-0c-70.275,-83.842 -125.834,-180.384 -162.717,-285.65l162.779,-276.967l318.646,0l168.775,287.175l-50.875,86.563c-8.746,14.875 -3.771,34.029 11.108,42.775c4.975,2.925 10.421,4.312 15.804,4.312c10.713,0 21.146,-5.512 26.971,-15.421l51.121,-86.979l322.096,0l165.329,281.308l-162.737,276.905c-53.121,9.612 -107.813,14.65 -163.663,14.65c-55.837,-0.005 -110.508,-5.038 -163.612,-14.646Zm547.579,-251.53l261.241,0c-109.237,108.355 -245.516,189.467 -397.704,232.196l136.463,-232.196Z" style="fill:#405983;fill-rule:nonzero"/><path d="M1456.92,1192.85c-8.63,0 -16.442,3.496 -22.096,9.15c-2.825,2.829 -5.117,6.196 -6.696,9.934c-0.933,2.204 -1.583,4.554 -1.992,6.983c-0.283,1.687 -0.466,3.408 -0.466,5.179c-0,5.392 1.366,10.467 3.77,14.896c0.963,1.771 2.092,3.437 3.363,4.983c5.733,6.946 14.408,11.371 24.117,11.371c17.258,0 31.25,-13.992 31.25,-31.25c-0,-17.254 -13.992,-31.246 -31.25,-31.246Z" style="fill:#082947;fill-rule:nonzero"/><path d="M1581.92,1317.85c-5.042,0 -9.792,1.221 -14.009,3.342c-1.195,0.604 -2.362,1.25 -3.466,1.996c-2.496,1.683 -4.734,3.72 -6.642,6.033c-4.458,5.4 -7.133,12.325 -7.133,19.879c-0,4.913 1.166,9.542 3.187,13.679c5.075,10.392 15.717,17.571 28.063,17.571c15.266,0 27.954,-10.954 30.687,-25.425c0.359,-1.891 0.563,-3.833 0.563,-5.825c-0,-17.258 -13.992,-31.25 -31.25,-31.25Z" style="fill:#082947;fill-rule:nonzero"/><path d="M376.417,640.479c17.258,0 31.25,-13.991 31.25,-31.25c-0,-5.067 -1.234,-9.841 -3.375,-14.075c-5.15,-10.179 -15.684,-17.175 -27.875,-17.175c-14.021,0 -25.888,9.238 -29.846,21.958c-0.304,0.98 -0.563,1.98 -0.771,2.996c-0.417,2.034 -0.633,4.142 -0.633,6.3c-0,17.255 13.991,31.246 31.25,31.246Z" style="fill:#082947;fill-rule:nonzero"/></g></svg>